<?xml version="1.0" encoding="UTF-8"?>
<svg width="128px" height="128px" viewBox="0 0 128 128" version="1.1" xmlns="http://www.w3.org/2000/svg" xmlns:xlink="http://www.w3.org/1999/xlink">
    <!-- Generator: Sketch 55.2 (78181) - https://sketchapp.com -->
    <title>notebook</title>
    <desc>Created with Sketch.</desc>
    <g id="Page-1" stroke="none" stroke-width="1" fill="none" fill-rule="evenodd">
        <g id="50-Knowledge-Element-Icons" transform="translate(-1086.000000, -736.000000)" fill-rule="nonzero">
            <g id="notebook" transform="translate(1086.000000, 736.000000)">
                <polygon id="Shape" fill="#FFE08F" points="90.55325 125.9575 98.7235 125.9575 98.7235 2.0425 90.55325 2.0425 85.1065 64"></polygon>
                <polygon id="Shape" fill="#FFF3D4" points="82.383 125.9575 90.55325 125.9575 90.55325 2.0425 82.383 2.0425 63.31925 64"></polygon>
                <polygon id="Shape" fill="#FFAB97" points="116.4255 2.0425 116.4255 12.93625 120.51075 18.383 124.59575 12.93625 124.59575 2.0425"></polygon>
                <polygon id="Shape" fill="#F1866D" points="115.06375 12.93625 115.06375 32 120.51075 37.44675 125.9575 32 125.9575 12.93625"></polygon>
                <polygon id="Shape" fill="#F1866D" points="120.51 125.9575 125.9575 109.617 120.51075 104.17025 115.06375 109.617"></polygon>
                <rect id="Rectangle-path" fill="#D8D1D0" x="115.06375" y="32" width="10.8935" height="77.617"></rect>
                <path d="M82.383,10.21275 L82.383,117.78725 C82.383,122.28075 78.7065,125.9575 74.21275,125.9575 L57.87225,64 L74.21275,2.0425 C78.7065,2.0425 82.383,5.71925 82.383,10.21275 Z" id="Shape" fill="#F1866D"></path>
                <polygon id="Shape" fill="#95341D" points="10.21275 2.0425 26.55325 64 10.21275 125.9575 2.0425 125.9575 2.0425 2.0425"></polygon>
                <polygon id="Shape" fill="#FFAB97" points="74.21275 2.0425 74.21275 125.9575 10.21275 125.9575 10.21275 2.0425"></polygon>
                <polygon id="Shape" fill="#FFF3D4" points="66.0425 18.383 66.0425 37.44675 57.87225 37.44675 46.97875 27.915 57.87225 18.383"></polygon>
                <rect id="Rectangle-path" fill="#FFFFFF" x="26.55325" y="18.383" width="31.31925" height="19.06375"></rect>
                <path d="M98.7235,0 C97.59525,0 96.681,0.9145 96.681,2.0425 L96.681,125.9575 C96.681,127.0855 97.59525,128 98.7235,128 C99.85175,128 100.766,127.0855 100.766,125.9575 L100.766,2.0425 C100.766,0.9145 99.85175,0 98.7235,0 Z" id="Shape" fill="#000000"></path>
                <path d="M74.21275,0 L2.0425,0 C0.9145,0 0,0.9145 0,2.0425 L0,125.9575 C0,127.0855 0.9145,128 2.0425,128 L74.21275,128 C79.84425,128 84.4255,123.41875 84.4255,117.78725 L84.4255,10.21275 C84.4255,4.58125 79.84425,0 74.21275,0 Z M80.3405,117.78725 C80.3405,121.16625 77.5915,123.915 74.21275,123.915 L4.085,123.915 L4.085,4.085 L74.21275,4.085 C77.5915,4.085 80.3405,6.83375 80.3405,10.21275 L80.3405,117.78725 Z" id="Shape" fill="#000000"></path>
                <path d="M10.21275,8.17025 C9.08475,8.17025 8.17025,9.08475 8.17025,10.21275 L8.17025,117.78725 C8.17025,118.91525 9.08475,119.82975 10.21275,119.82975 C11.34075,119.82975 12.25525,118.91525 12.25525,117.78725 L12.25525,10.21275 C12.25525,9.08475 11.34075,8.17025 10.21275,8.17025 Z" id="Shape" fill="#000000"></path>
                <path d="M90.55325,0 C89.425,0 88.51075,0.9145 88.51075,2.0425 L88.51075,125.9575 C88.51075,127.0855 89.425,128 90.55325,128 C91.6815,128 92.59575,127.0855 92.59575,125.9575 L92.59575,2.0425 C92.59575,0.9145 91.6815,0 90.55325,0 Z" id="Shape" fill="#000000"></path>
                <path d="M126.63825,11.01225 L126.63825,2.0425 C126.63825,0.9145 125.724,0 124.59575,0 L116.4255,0 C115.29725,0 114.383,0.9145 114.383,2.0425 L114.383,11.01225 C113.59025,11.293 113.02125,12.04725 113.02125,12.936 L113.02125,20.631 C108.36525,21.57975 104.851,25.706 104.851,30.63825 L104.851,66.0425 C104.851,67.1705 105.76525,68.085 106.8935,68.085 C108.02175,68.085 108.936,67.1705 108.936,66.0425 L108.936,30.63825 C108.936,27.9755 110.64375,25.705 113.021,24.862 L113.021,109.617 C113.021,109.8365 113.0565,110.05475 113.12575,110.263 L118.572,126.6035 C118.85,127.43775 119.6305,128 120.50975,128 C121.389,128 122.1695,127.43725 122.4475,126.6035 L127.89475,110.263 C127.96425,110.05475 127.9995,109.8365 127.9995,109.617 L127.9995,12.93625 C128,12.04725 127.431,11.29275 126.63825,11.01225 Z M117.1065,14.97875 L123.915,14.97875 L123.915,29.9575 L117.1065,29.9575 L117.1065,14.97875 Z M117.1065,34.0425 L123.915,34.0425 L123.915,107.5745 L117.1065,107.5745 L117.1065,34.0425 Z M122.55325,4.085 L122.55325,10.8935 L118.46825,10.8935 L118.46825,4.085 L122.55325,4.085 Z M120.51025,119.49825 L117.8975,111.6595 L123.1235,111.6595 L120.51025,119.49825 Z" id="Shape" fill="#000000"></path>
                <path d="M66.0425,16.3405 L26.55325,16.3405 C25.42525,16.3405 24.51075,17.255 24.51075,18.383 L24.51075,37.44675 C24.51075,38.57475 25.42525,39.48925 26.55325,39.48925 L66.0425,39.48925 C67.17075,39.48925 68.085,38.57475 68.085,37.44675 L68.085,18.383 C68.085,17.255 67.17075,16.3405 66.0425,16.3405 Z M64,35.40425 L28.59575,35.40425 L28.59575,20.4255 L64,20.4255 L64,35.40425 Z" id="Shape" fill="#000000"></path>
            </g>
        </g>
    </g>
</svg>