<?xml version="1.0" encoding="UTF-8"?>
<svg width="128px" height="128px" viewBox="0 0 128 128" version="1.1" xmlns="http://www.w3.org/2000/svg" xmlns:xlink="http://www.w3.org/1999/xlink">
    <!-- Generator: Sketch 55.2 (78181) - https://sketchapp.com -->
    <title>chat</title>
    <desc>Created with Sketch.</desc>
    <g id="Page-1" stroke="none" stroke-width="1" fill="none" fill-rule="evenodd">
        <g id="50-Knowledge-Element-Icons" transform="translate(-786.000000, -2536.000000)" fill-rule="nonzero">
            <g id="chat" transform="translate(786.000000, 2536.000000)">
                <path d="M125.95725,2.042 L105.65925,8.808 C99.07025,4.62325 91.2875,2.15725 82.93475,2.04775 L82.79725,89.10675 C106.631,88.8625 125.876,69.46875 125.876,45.576 C125.876,37.04625 123.4185,29.092 119.18025,22.374 L125.95725,2.042 Z" id="Shape" fill="#3891E9"></path>
                <path d="M82.935,2.04775 C102.04775,2.441 117.45025,21.77825 117.45025,45.57575 C117.45025,69.43225 101.97475,88.80325 82.7975,89.1065 C82.64575,89.10925 82.494,89.10925 82.3425,89.10925 C58.298,89.10925 38.809,69.62025 38.809,45.57575 C38.809,21.53375 58.298,2.04225 82.3425,2.04225 C82.539,2.042 82.73825,2.042 82.935,2.04775 Z" id="Shape" fill="#68AEF4"></path>
                <path d="M46.07175,69.713 L46.07175,125.87225 C67.74725,125.649 85.629,109.60275 88.72025,88.736 L46.07175,69.713 Z" id="Shape" fill="#FFD159"></path>
                <path d="M39.27975,39.18375 C18.21975,42.253 2.04275,60.38525 2.04275,82.3005 C2.04275,90.8875 4.52925,98.8915 8.81575,105.64 L2.04275,125.95675 L22.39475,119.17275 C29.11875,123.4185 37.07925,125.875 45.61725,125.875 C45.76975,125.875 45.9195,125.875 46.072,125.87225 C63.401,125.6 77.7015,109.777 80.327,89.14175 L39.27975,39.18375 Z" id="Shape" fill="#FFE08F"></path>
                <path d="M89.1915,82.3005 C89.1915,84.4875 89.03075,86.63625 88.72025,88.736 C86.6505,89.0355 84.537,89.19075 82.383,89.19075 C81.69375,89.19075 81.00825,89.17475 80.32675,89.143 L46.07175,64.266 L46.07175,38.729 C69.92875,38.974 89.1915,58.3865 89.1915,82.3005 Z" id="Shape" fill="#4CF5CB"></path>
                <path d="M80.757,82.3005 C80.757,84.629 80.61,86.914 80.32675,89.14175 C57.21325,88.06875 38.8085,68.994 38.8085,45.6165 C38.8085,43.43225 38.96925,41.2835 39.27975,39.18375 C41.3495,38.8815 43.4655,38.72625 45.617,38.72625 C45.7695,38.72625 45.91925,38.72625 46.07175,38.729 C65.27175,39.034 80.757,58.42175 80.757,82.3005 Z" id="Shape" fill="#D1FDF2"></path>
                <circle id="Oval" fill="#000000" cx="69.77625" cy="69.659" r="2.0425"></circle>
                <circle id="Oval" fill="#000000" cx="64" cy="63.88275" r="2.0425"></circle>
                <circle id="Oval" fill="#000000" cx="58.22375" cy="58.10375" r="2.0425"></circle>
                <path d="M121.44275,22.045 L127.895,2.6885 C128.1395,1.9545 127.94875,1.1455 127.4015,0.59825 C126.85425,0.051 126.04525,-0.1395 125.31125,0.10475 L105.9545,6.557 C98.8555,2.2645 90.72725,0 82.383,0 C60.0025,0 41.3355,16.201 37.4915,37.49075 C27.33575,39.32 18.05275,44.5815 11.21975,52.4195 C3.98475,60.719 0.00025,71.36 0.00025,82.38275 C0.00025,90.72675 2.2645,98.85525 6.5575,105.95475 L0.105,125.3115 C-0.1395,126.0455 0.05125,126.8545 0.5985,127.40175 C0.98775,127.791 1.50975,128 2.043,128 C2.259,128 2.477,127.96575 2.68875,127.89525 L22.0455,121.44325 C29.1445,125.7355 37.273,127.99975 45.617,127.99975 C70.77025,127.99975 91.234,107.53625 91.234,82.38275 C91.234,70.5645 86.7325,59.358 78.55875,50.82725 C70.4105,42.32325 59.4585,37.3465 47.72,36.8135 C46.5905,36.75825 45.638,37.63425 45.58675,38.76125 C45.5355,39.88825 46.4075,40.84325 47.5345,40.8945 C69.74825,41.90325 87.14875,60.12725 87.14875,82.38275 C87.14875,83.91075 87.06325,85.41925 86.9015,86.905 C85.40575,87.06675 83.8915,87.14875 82.38275,87.14875 C59.482,87.14875 40.851,68.51775 40.851,45.617 C40.851,22.71625 59.48225,4.085 82.383,4.085 C90.279,4.085 97.96075,6.31075 104.5985,10.522 C105.117,10.851 105.756,10.92925 106.3385,10.735 L122.72775,5.27175 L117.2645,21.6605 C117.07025,22.243 117.1485,22.882 117.4775,23.4005 C121.689,30.03875 123.91475,37.721 123.91475,45.6165 C123.91475,63.06225 112.89625,78.7645 96.4965,84.68925 C95.4355,85.0725 94.88625,86.2435 95.2695,87.30425 C95.65275,88.36525 96.82325,88.9145 97.8845,88.53125 C115.89725,82.024 127.99975,64.77775 127.99975,45.6165 C127.99975,37.27325 125.73575,29.1445 121.44275,22.045 Z M82.383,91.23375 C83.66675,91.23375 84.9535,91.1735 86.23275,91.0665 C82.229,109.8125 65.54025,123.9145 45.617,123.9145 C37.72075,123.9145 30.039,121.68875 23.4015,117.47775 C22.88325,117.14875 22.244,117.0705 21.6615,117.26475 L5.27225,122.7275 L10.7355,106.33875 C10.92975,105.75625 10.8515,105.11725 10.5225,104.59875 C6.31125,97.96075 4.08525,90.2785 4.08525,82.38275 C4.08525,62.8065 18.0285,45.799 36.93025,41.76325 C36.8235,43.03425 36.766,44.319 36.766,45.61675 C36.766,70.77025 57.22975,91.23375 82.383,91.23375 Z" id="Shape" fill="#000000"></path>
            </g>
        </g>
    </g>
</svg>