<?xml version="1.0" encoding="UTF-8"?>
<svg width="128px" height="116px" viewBox="0 0 128 116" version="1.1" xmlns="http://www.w3.org/2000/svg" xmlns:xlink="http://www.w3.org/1999/xlink">
    <!-- Generator: Sketch 55.2 (78181) - https://sketchapp.com -->
    <title>statistics</title>
    <desc>Created with Sketch.</desc>
    <g id="Page-1" stroke="none" stroke-width="1" fill="none" fill-rule="evenodd">
        <g id="100-E-Learning-Element-Icons" transform="translate(-841.000000, -1689.000000)" fill-rule="nonzero">
            <g id="statistics" transform="translate(841.000000, 1689.000000)">
                <path d="M121.482979,75.1762857 L40.4053333,75.1762857 C38.0484366,75.1762857 36.1381676,73.254 36.1381676,70.8822771 L36.1381676,6.47089177 C36.1381676,4.09916883 38.0484366,2.17688312 40.4053333,2.17688312 L121.482979,2.17688312 C123.839875,2.17688312 125.750144,4.09916883 125.750144,6.47089177 L125.750144,70.882026 C125.750144,73.254 123.839626,75.1762857 121.482979,75.1762857 Z" id="Shape" fill="#E4EAF8"></path>
                <polygon id="Rectangle-path" fill="#7DF5A5" points="102.280483 10.7651515 112.948647 10.7651515 112.948647 66.5882684 102.280483 66.5882684"></polygon>
                <polygon id="Rectangle-path" fill="#FFDC64" points="83.0777388 27.9414372 93.7459025 27.9414372 93.7459025 66.5882684 83.0777388 66.5882684"></polygon>
                <polygon id="Rectangle-path" fill="#FF5050" points="63.8752437 45.1177229 74.5434074 45.1177229 74.5434074 66.5880173 63.8752437 66.5880173"></polygon>
                <path d="M52.4273528,84.9328398 L45.4612086,82.5960173 C43.7186121,82.0114978 42.5434074,80.3706753 42.5434074,78.5222078 L42.5434074,73.0292814 L29.7419103,73.0292814 L29.7419103,78.5224589 C29.7419103,80.3706753 28.5667057,82.0117489 26.8241092,82.5962684 L19.8582144,84.9330909 C18.1156179,85.5176104 16.9404133,87.1584329 16.9404133,89.0069004 L16.9404133,113.823117 L55.345653,113.823117 L55.345653,89.0066494 C55.345154,87.1581818 54.1699493,85.5173593 52.4273528,84.9328398 Z" id="Shape" fill="#D29B6E"></path>
                <path d="M52.4273528,84.9328398 L45.4612086,82.5960173 C45.0427758,82.4556623 44.6615205,82.2480173 44.3169435,81.9974372 C42.3597661,84.3691602 39.4447096,85.9115584 36.1424094,85.9115584 C32.8401092,85.9115584 29.9250526,84.3691602 27.9678752,81.9974372 C27.6232982,82.2477662 27.2422924,82.4559134 26.8236101,82.5960173 L19.8577154,84.9328398 C18.1151189,85.5173593 16.9399142,87.1581818 16.9399142,89.0066494 L16.9399142,113.823117 L55.345154,113.823117 L55.345154,89.0066494 C55.345154,87.1581818 54.1699493,85.5173593 52.4273528,84.9328398 Z" id="Shape" fill="#5B5D6E"></path>
                <ellipse id="Oval" fill="#694B4B" cx="36.1434074" cy="54.779368" rx="17.0689123" ry="16.1029091"></ellipse>
                <path d="M40.2668538,39.1695844 C38.9436881,38.8592468 37.5673762,38.6764589 36.1426589,38.6764589 C26.7158207,38.6764589 19.0737466,45.8860346 19.0737466,54.779368 C19.0737466,62.4157835 24.7144795,68.7962857 32.275462,70.4514199 L32.275462,57.4631861 C32.275462,48.1623463 36.72577,42.3422597 40.2668538,39.1695844 Z" id="Shape" fill="#5A4146"></path>
                <path d="M46.9016452,71.9099567 L39.9594542,75.403013 C37.5566472,76.6117229 34.7286706,76.6117229 32.3258635,75.403013 L25.3836725,71.9099567 C24.1074152,71.2679394 23.2348694,70.0265887 23.0577154,68.6019481 L21.7617466,58.1694805 C21.6090448,56.9396797 22.5130292,55.8421991 23.7416296,55.7613506 C27.7183626,55.4994719 36.0121637,54.4948918 41.1249279,50.6422857 C41.9872437,49.9924848 43.1908928,50.1069784 43.9277037,50.8978874 L49.8593684,57.2638268 C50.293271,57.7295844 50.4986199,58.3653247 50.4200234,58.9985541 L49.2271033,68.601697 C49.0506979,70.0263377 48.177653,71.2679394 46.9016452,71.9099567 Z" id="Shape" fill="#F0C087"></path>
                <path d="M49.8598674,57.2638268 L43.9279532,50.8976364 C43.1859025,50.1014545 41.9780117,50.0015238 41.1089591,50.6545887 C38.518768,52.6007273 35.1191579,53.8139567 31.8754932,54.5759913 L31.8754932,54.5762424 C28.7034386,55.3212035 25.6813411,55.634303 23.7214191,55.7628571 C22.4853333,55.8439567 21.6082963,56.9331515 21.7619961,58.1697316 L23.0577154,68.601697 C23.2348694,70.0265887 24.1074152,71.2679394 25.383922,71.9102078 L32.3261131,75.4032641 C33.3628382,75.9247619 34.481653,76.1760952 35.6084522,76.2479048 L33.0020429,71.0022944 C32.2614893,69.5118701 31.8757427,67.8685368 31.8757427,66.2021039 L31.8757427,62.878026 C31.8757427,61.8729437 32.5691384,61.0222771 33.5407407,60.7887706 C36.2516959,60.1372121 39.0679454,59.2072035 41.6484055,57.8681818 L45.1907368,61.6700693 C46.3796647,62.9463203 48.1412242,63.9365887 49.831423,63.7432554 L50.4207719,58.9990563 C50.4993684,58.3653247 50.29377,57.7295844 49.8598674,57.2638268 Z" id="Shape" fill="#E6AF78"></path>
                <path d="M48.9444055,36.5297056 L23.3409123,36.5297056 L21.7078519,43.103039 C21.4288967,44.226381 22.085115,45.3700606 23.1914542,45.6881818 L34.9701988,49.0745281 C35.7364522,49.2949784 36.548616,49.2949784 37.3148694,49.0745281 L49.093614,45.6881818 C50.2002027,45.3700606 50.8564211,44.226381 50.5772164,43.103039 L48.9444055,36.5297056 Z" id="Shape" fill="#5B5D6E"></path>
                <path d="M23.3409123,36.5297056 L21.7076023,43.103039 C21.4286472,44.226381 22.0848655,45.3700606 23.1912047,45.6881818 L34.9701988,49.0747792 C35.3534503,49.1847532 35.7479298,49.2399913 36.1426589,49.2399913 L36.1426589,36.5294545 L23.3409123,36.5294545 L23.3409123,36.5297056 Z" id="Shape" fill="#464655"></path>
                <path d="M34.4584483,28.1769524 L15.3734737,33.6133853 C14.6234386,33.8270563 14.6234386,34.9380952 15.3734737,35.1517662 L34.4584483,40.5881991 C35.5610448,40.902303 36.7240234,40.902303 37.8268694,40.5881991 L56.9118441,35.1517662 C57.6618791,34.9380952 57.6618791,33.8270563 56.9118441,33.6133853 L37.8268694,28.1769524 C36.7240234,27.8630996 35.5610448,27.8630996 34.4584483,28.1769524 Z" id="Shape" fill="#707487"></path>
                <path d="M46.8063314,113.823117 L25.4702534,113.823117 C24.2920546,113.823117 23.3366706,112.861723 23.3366706,111.676113 L23.3366706,98.7938355 C23.3366706,97.6082251 24.2920546,96.6468312 25.4702534,96.6468312 L46.8063314,96.6468312 C47.9845302,96.6468312 48.9399142,97.6082251 48.9399142,98.7938355 L48.9399142,111.676113 C48.9399142,112.861723 47.9845302,113.823117 46.8063314,113.823117 Z" id="Shape" fill="#D5DCED"></path>
                <path d="M121.482979,0.16395671 L40.4053333,0.16395671 C36.9493333,0.16395671 34.1378246,2.99315152 34.1378246,6.47089177 L34.1378246,26.1826061 C34.0602261,26.2021905 33.9821287,26.2182597 33.9047797,26.240355 L14.8198051,31.6762857 C13.6126628,32.0200173 12.8017466,33.1074545 12.8017466,34.3824502 C12.8017466,35.6571948 13.6129123,36.744632 14.8195556,37.0886147 L21.1519376,38.8923896 L20.0054269,42.3540606 C19.7224795,43.2084935 19.731462,44.1352381 20.0106667,44.9828918 C18.0796881,47.8341818 17.0644211,51.1060346 17.0644211,54.5257749 C17.0644211,58.2475671 18.2733099,61.7915931 20.5623392,64.813368 L21.0641092,68.8517749 C21.3246004,70.9488139 22.6016062,72.765645 24.4801871,73.7104675 L27.7325848,75.3467706 L27.7325848,78.5224589 C27.7325848,79.5059481 27.1098012,80.375697 26.1826121,80.6862857 L19.2162183,83.0231082 C16.6529747,83.8830649 14.9308382,86.2874286 14.9308382,89.0063983 L14.9308382,111.810442 L2.00034308,111.810442 C0.895750487,111.810442 0,112.711576 0,113.823368 C0,114.93516 0.895500975,115.836294 2.00034308,115.836294 L70.2762417,115.836294 C71.3808343,115.836294 72.2765848,114.93516 72.2765848,113.823368 C72.2765848,112.711576 71.3810838,111.810442 70.2762417,111.810442 L57.3367641,111.810442 L57.3367641,89.0066494 C57.3367641,86.2876797 55.6143782,83.8830649 53.0511345,83.0233593 L46.0852398,80.6865368 C45.1583002,80.3754459 44.5352671,79.5059481 44.5352671,78.52271 L44.5352671,77.1894632 L121.483478,77.1894632 C124.939478,77.1894632 127.750986,74.3602684 127.750986,70.8825281 L127.750986,6.47089177 C127.750487,2.9934026 124.938979,0.16395671 121.482979,0.16395671 Z M34.9944016,30.1138009 L34.9944016,30.1138009 C35.7401949,29.9016364 36.5279064,29.9016364 37.2732008,30.1138009 L52.2594308,34.3827013 L37.2734503,38.6516017 C36.5279064,38.8640173 35.7399454,38.8640173 34.9946511,38.6516017 L20.0084211,34.3827013 L34.9944016,30.1138009 Z M36.1336764,83.898632 C34.1470565,83.898632 32.2357895,83.2091602 30.7072749,81.9748398 C31.3592515,80.9725195 31.7330214,79.7823896 31.7330214,78.5224589 L31.7330214,77.3483983 C33.123306,77.9911688 34.6278674,78.3168225 36.1336764,78.3168225 C37.6394854,78.3168225 39.1440468,77.9911688 40.5343314,77.3483983 L40.5343314,78.5224589 C40.5343314,79.7821385 40.9076023,80.9722684 41.5598285,81.9745887 C40.0323119,83.2094113 38.124538,83.898632 36.1336764,83.898632 Z M21.0828226,53.8794892 C21.1911111,51.7010996 21.8460819,49.6098355 23.0055673,47.7304848 L35.5842495,51.3470736 C35.5922339,51.3495844 35.6007173,51.3500866 35.6087018,51.3523463 C29.3139961,53.7941212 21.5678752,53.8405714 21.4648265,53.8405714 C21.3355789,53.8405714 21.2078285,53.8551342 21.0828226,53.8794892 Z M49.2620351,47.7307359 C50.5355478,49.7953853 51.2022456,52.1153853 51.2022456,54.5255238 C51.2022456,54.922987 51.1820351,55.3179394 51.1453567,55.710381 L44.8828382,48.9896623 L49.2620351,47.7307359 Z M48.4668382,43.6267965 C48.4700819,43.6363377 48.4728265,43.6581818 48.4698324,43.6845455 C48.4314074,43.7224589 48.3962261,43.762632 48.3615439,43.8028052 L38.1340195,46.7432294 L38.1340195,42.5815411 C38.2103704,42.5622078 38.2872203,42.5463896 38.3628226,42.5247965 L47.2619415,39.9898701 L48.4668382,43.6267965 Z M33.9050292,42.5250476 C33.9808811,42.5466407 34.057232,42.5624589 34.1333333,42.5817922 L34.1333333,46.7434805 L23.9115478,43.8048139 C23.8746199,43.7618788 23.837193,43.719697 23.7962729,43.6797749 C23.7947758,43.6559221 23.7975205,43.6363377 23.8005146,43.6275498 L25.0051618,39.9906234 L33.9050292,42.5250476 Z M25.0336062,68.3521212 L23.7209201,57.7825628 C27.8715634,57.5244502 36.7609513,56.4731688 42.3877115,52.1964848 L48.4349006,58.6864589 L47.2344951,68.3521212 C47.1401793,69.1108918 46.6783314,69.7674719 45.9986589,70.109697 L45.9986589,70.109697 L39.0564678,73.6027532 C37.2262924,74.5232208 35.041809,74.5229697 33.211883,73.6027532 L26.269692,70.109697 C25.58977,69.7677229 25.127922,69.1106407 25.0336062,68.3521212 Z M18.9315244,89.0063983 C18.9315244,88.022658 19.554308,87.1531602 20.4814971,86.8420693 L27.4478908,84.5052468 C27.4618635,84.5007273 27.4748382,84.4944502 27.4883119,84.4896797 C29.3352047,86.224658 31.6514308,87.3635671 34.1343314,87.76329 L34.137076,94.6334026 L25.4700039,94.6334026 C23.1904561,94.6334026 21.336078,96.4994459 21.336078,98.7933333 L21.336078,111.67561 C21.336078,111.721056 21.3413177,111.764996 21.3428148,111.809688 L18.9312749,111.809688 L18.9312749,89.0061472 L18.9315244,89.0061472 L18.9315244,89.0063983 Z M25.4700039,111.81019 C25.3963977,111.81019 25.3367641,111.750182 25.3367641,111.676113 L25.3367641,98.7938355 C25.3367641,98.7197662 25.3963977,98.6597576 25.4700039,98.6597576 L36.1381676,98.6597576 L36.1389162,98.6597576 L46.8063314,98.6597576 C46.8799376,98.6597576 46.9395712,98.7197662 46.9395712,98.7938355 L46.9395712,111.676113 C46.9395712,111.750182 46.8799376,111.81019 46.8063314,111.81019 L25.4700039,111.81019 Z M53.336078,89.0063983 L53.336078,111.81019 L50.933271,111.81019 C50.9345185,111.765498 50.9400078,111.721307 50.9400078,111.676113 L50.9400078,98.7938355 C50.9400078,96.4999481 49.0856296,94.6339048 46.8060819,94.6339048 L38.1375127,94.6339048 L38.134768,87.76329 C40.6201637,87.3638182 42.9351423,86.2281732 44.7820351,84.4911861 C44.7947602,84.4954545 44.8067368,84.5012294 44.8197115,84.5054978 L51.7856062,86.8423203 C52.7132943,87.1534113 53.336078,88.0231602 53.336078,89.0063983 Z M123.750051,70.8822771 C123.750051,72.1401991 122.733037,73.1636104 121.482979,73.1636104 L48.6764288,73.1636104 C50.0632203,72.1474805 50.9869162,70.5978009 51.2037427,68.8515238 L51.2349318,68.6011948 L117.215813,68.6011948 C118.320405,68.6011948 119.216156,67.7000606 119.216156,66.5882684 C119.216156,65.4767273 118.320655,64.575342 117.215813,64.575342 L114.948741,64.575342 L114.948741,10.7651515 C114.948741,9.65361039 114.05324,8.75222511 112.948398,8.75222511 L102.280234,8.75222511 C101.175641,8.75222511 100.279891,9.65335931 100.279891,10.7651515 L100.279891,64.575342 L95.7459961,64.575342 L95.7459961,27.9414372 C95.7459961,26.8298961 94.8504951,25.9285108 93.745653,25.9285108 L83.0777388,25.9285108 C81.9731462,25.9285108 81.0773957,26.829645 81.0773957,27.9414372 L81.0773957,64.575342 L76.543501,64.575342 L76.543501,45.1177229 C76.543501,44.0061818 75.648,43.1047965 74.5431579,43.1047965 L63.8752437,43.1047965 C62.7706511,43.1047965 61.8749006,44.0059307 61.8749006,45.1177229 L61.8749006,64.575342 L51.8811696,64.575342 C54.0539259,61.6045368 55.2029318,58.1401039 55.2029318,54.5255238 C55.2029318,51.1057835 54.1879142,47.8339307 52.2566862,44.9826407 C52.5358908,44.134987 52.5448733,43.2084935 52.2619259,42.3538095 L51.1151657,38.8921385 L55.4694113,37.6517922 L55.4694113,47.2647273 C55.4694113,48.3762684 56.3649123,49.2776537 57.4697544,49.2776537 C58.5745965,49.2776537 59.4700975,48.3765195 59.4700975,47.2647273 L59.4700975,34.3824502 C59.4700975,34.3058701 59.4651072,34.2305455 59.4568733,34.1562251 C59.3672982,32.9804069 58.5828304,31.9996797 57.4477973,31.6762857 L38.3628226,26.2398528 C38.2884678,26.2187619 38.213115,26.2034459 38.1385107,26.1843636 L38.1385107,6.47089177 C38.1385107,5.2129697 39.1555244,4.18955844 40.4055828,4.18955844 L121.482729,4.18955844 C122.732788,4.18955844 123.749801,5.2129697 123.749801,6.47089177 L123.749801,70.882026 L123.750051,70.882026 L123.750051,70.8822771 Z M72.5430643,64.575342 L65.8755867,64.575342 L65.8755867,47.1306494 L72.5430643,47.1306494 L72.5430643,64.575342 Z M91.7455595,64.575342 L85.0780819,64.575342 L85.0780819,29.9543636 L91.7455595,29.9543636 L91.7455595,64.575342 Z M110.948304,64.575342 L104.280827,64.575342 L104.280827,12.7778268 L110.948304,12.7778268 L110.948304,64.575342 Z" id="Shape" fill="#000000"></path>
                <path d="M36.1488967,103.222173 L36.1274386,103.222173 C35.022846,103.222173 34.1378246,104.123307 34.1378246,105.2351 C34.1378246,106.346641 35.0440546,107.248026 36.1486472,107.248026 C37.2532398,107.248026 38.1489903,106.346892 38.1489903,105.2351 C38.1492398,104.123307 37.2534893,103.222173 36.1488967,103.222173 Z" id="Shape" fill="#000000"></path>
            </g>
        </g>
    </g>
</svg>